<svg xmlns="http://www.w3.org/2000/svg" viewBox="0 0 890.1 1080"><defs><style>.cls-1{fill:#009245;}</style></defs><g id="Layer_2" data-name="Layer 2"><g id="Layer_1-2" data-name="Layer 1"><path class="cls-1" d="M886.22.29h-704C167,11.09,151.05,21,140.46,36.4S124.7,72.34,131.7,89.75c2.89,7.2,7.72,13.6,9.7,21.12,4.54,17.2-7.83,35.43-23.91,42.71s-34.64,6-52,2.84c-6-1.09-13.16-2.06-17.5,2.32-2.66,2.68-3.45,6.66-4.11,10.4-4.67,26.27-6.26,59.71,16.73,72.86,12.11,6.93,27,5.25,40.85,6.13s29.84,6.64,33.55,20.18c4,14.46-8.16,27.78-18.4,38.64s-20,27.36-11.64,39.77c10.85,16.14,38.65,5.8,53.17,18.67,15.82,14,2.08,41.24-16,52.17-29.77,18-68,17.2-100.59,5.11-6.1-2.26-12.8-4.9-18.86-2.55-6.94,2.7-10,10.7-12.29,17.84-9.44,29.43-18,64.47.64,89,8,10.51,20.06,17.22,32.55,21.31a106.79,106.79,0,0,0,80.21-6c20.77-10.41,43.08-28.2,64.31-18.77,13.4,5.95,20.58,22.09,18.83,36.78s-11.05,27.62-22.66,36.62c-7.06,5.46-15.86,11-16.55,20-.74,9.63,8.55,16.86,17.34,20.66,33.18,14.33,71.08,7.44,107.08,10,5.41.38,11,1,15.72,3.7,10,5.61,13.62,18.94,11.46,30.28s-8.84,21.2-15.37,30.69l-46.78,67.95c-6.4,9.29-13.11,20.3-10,31.18,3.76,13.25,19.56,18.28,33.11,19.78a196.41,196.41,0,0,0,87.58-10.32c-14.44,43.07-44.75,80.42-83,104.36-23.92,15-18,51.89,9.35,58.34a111.86,111.86,0,0,0,59-1.8,17.88,17.88,0,0,1,4.21-.85c12.79-.79,13.55,13.55,8.65,22a2.39,2.39,0,0,1-.13.21,36.37,36.37,0,0,0,1.55,39.9l9.19,12.69c-7.59,5.76-.09,24.38,9.21,22.42l504.27,2-1.94-2L884.28.29C885.72.29,884.92-.36,886.22.29Z"/></g></g></svg>