<svg xmlns="http://www.w3.org/2000/svg" viewBox="0 0 1055.76 3079"><defs><style>.cls-1{fill:#009245;}</style></defs><g id="Layer_2" data-name="Layer 2"><g id="Layer_1-2" data-name="Layer 1"><path class="cls-1" d="M256.76,1048c-98-103-223.84-17.84-237.07,3.67-52.51,85.39,6,215.54,104.71,232.95,50.21,8.86,101.45-7.45,152.41-5.95s109.58,33.09,109.34,84.08c-.13,28.44-18.74,53.24-25.92,80.76-17.78,68.23,128.53,53.49,123.44,125.29-4.27,60.29-105.54,54.16-139.21,104.35-10.56,15.73-13.58,35.81-25.25,50.73-17.67,22.58-42.45,58.12-103.45,42.12-55.41-14.53-84.55,96.72-82,128,7,86,123,125,178,115,36.28-6.6,75.63-89.15,154.66-113.29,28.63-8.74,64-17.59,85,3.76,9.31,9.47,13.21,23,14.63,36.26,5.79,53.68-24.68,106.37-66.87,140.06-20.08,16-42.52,28.46-66.13,38.62a63,63,0,0,0-29,90.74,162.11,162.11,0,0,1,16.4,35.26c12.23,38.48,3.38,86.84-31,108-31.31,19.32-81.46,17.69-92.38,52.81-16.63,53.46,89.34,98,59,145C344.59,2564.06,173.76,2507,185.76,2580c33.78,205.48,101.2,199.18,154,166,148-93,57,30,84,49,50.21,35.34,118.15,9.47,116.37,34.57-1.85,26.08-33.54,36.3-55.64,50.29-33.83,21.4-51.47,65.56-41.68,104.38s45,92,84.95,94.76h528V0h-468c-51.42,6.61-93.41,51.87-112.93,99.89S458.6,203.31,477,251.79c11.23,29.63,27.77,63.29,12.13,90.85-16.3,28.73-59.54,30.27-87.84,13.23-15.75-9.47-29.46-23.5-47.42-27.43-44.76-9.8-75.75,54.61-54.48,95.2s69.25,58.23,113.51,70.07c34.76,9.3,79.85,39.1,60.18,69.23-6.34,9.71-17.93,14.5-29.09,17.66a185.56,185.56,0,0,1-137-15C261.38,541,210.25,496,166.29,523.35c-40.86,25.43-26.56,92.82,11.38,122.43s88.46,36,133.18,53.78,89.15,58.1,81.46,105.61c-6.66,41.2-47.94,65.51-80.49,91.63s-60.46,74.25-34.58,107c14.49,18.32,39.81,22.87,61.32,32s43,31,34.71,52.89c-6.68,17.61-28.35,23.43-47,25.87"/></g></g></svg>