<svg xmlns="http://www.w3.org/2000/svg" viewBox="0 0 473.65 876.6"><defs><style>.cls-1{fill:#006837;}</style></defs><g id="Layer_2" data-name="Layer 2"><g id="Layer_1-2" data-name="Layer 1"><path class="cls-1" d="M442.78,23.05a91.19,91.19,0,0,0-42.23,21.07c-2.34,2.07-4.73,4.35-7.78,5-8.41,1.85-13.55-8.52-17.36-16.24-11.56-23.47-40-37.22-65.61-31.67-2.93.63-5.91,1.54-8.17,3.51-6.73,5.85-3.76,16.93-7,25.24-4.73,12-20.46,14.61-33.35,14s-27.65-1.89-36.83,7.18c-14.32,14.14-4.79,43.88-22,54.33-7.3,4.43-16.52,3.15-25,3.89-20.23,1.78-38.57,17.1-43.93,36.68s2.63,42.11,19.13,53.94c4.72,3.38,10,6,14.22,10,17.17,16.65,3.94,48.29-17.79,58.31s-46.92,5.92-70.76,4-50.87-.16-66.92,17.58c-19.54,21.58-12.17,58.32,9,78.29S72,394.76,101.06,396.77c10.59.73,22,1.26,30.32,7.86,13.81,11,11.76,33.2,2.64,48.29s-23.46,26.44-32.83,41.38c-2,3.13-3.73,6.59-3.64,10.28.18,6.72,6.2,11.52,11.08,16.14,12.84,12.13,20.47,33.09,10.13,47.41-6,8.28-16.28,12.15-23.73,19.12-11.66,10.89-15,27.8-17.66,43.52-4.16,24.27-5.56,54.94,15.71,67.35,12.71,7.41,28.56,4.77,43.25,3.83s32,1.57,39.21,14.41c11.37,20.29-12.33,42.94-13.84,66.16-.8,12.34,5,24.27,12.45,34.09,8.94,11.69,21,21.55,35.33,25s30.87-.52,40-12,8.41-30.54-3.26-39.5c10.18-6.75,24.6-1.53,32.63,7.67s11.59,21.31,16.37,32.55c8.13,19.11,21.61,37.48,41.27,44.19s45.48-3.1,50-23.36c.91-4.09,1.24-8.86,4.6-11.37,5-3.73,11.82.57,16.86,4.25,17.92,13,45.17,16.36,59.3-.71l.12-16.65.33-45.87.5-69.07.62-86.23.7-97.38.73-102.48.73-101.55.68-94.61.59-81.63.45-62.62.16-22.3c.05-7.7,1.31-16.41.39-23.94C471.43,23.51,455.55,20.47,442.78,23.05Z"/></g></g></svg>